<svg xmlns="http://www.w3.org/2000/svg" xmlns:xlink="http://www.w3.org/1999/xlink" id="Layer_1" x="0" y="0" version="1.1" viewBox="0 0 50 50" xml:space="preserve" style="enable-background:new 0 0 50 50"><style type="text/css">.st0,.st1{fill:#0c9;stroke:#0c9;stroke-width:2;stroke-miterlimit:10}.st1{fill:#fff}</style><g><path d="M10.8,18.4l-6.7,6.3h3.9v20.3h33.7V24.7h4.4L24.2,4.8l-8.7,8.7L13.9,15L10.8,18.4z M20.4,37.6 c0,0.8-0.7,1.5-1.5,1.5h-6.1c-0.8,0-1.5-0.7-1.5-1.5V27.4c0-0.8,0.7-1.5,1.5-1.5h6.1c0.8,0,1.5,0.7,1.5,1.5V37.6z M36,43.2H25.2 V25.9H36V43.2z" class="st0"/></g><line x1="15.8" x2="15.8" y1="24.9" y2="40.5" class="st1"/><line x1="8.6" x2="21.9" y1="30.8" y2="30.8" class="st1"/></svg>